<mxfile host="65bd71144e" modified="2020-10-07T04:32:03.188Z" agent="5.0 (X11; Linux x86_64) AppleWebKit/537.36 (KHTML, like Gecko) Code/1.49.2 Chrome/83.0.4103.122 Electron/9.2.1 Safari/537.36" etag="yxmOD1TxQat0ghkcnAvS" version="13.6.5">
    <diagram id="6hGFLwfOUW9BJ-s0fimq" name="Page-1">
        <mxGraphModel dx="1105" dy="800" grid="1" gridSize="10" guides="1" tooltips="1" connect="1" arrows="1" fold="1" page="1" pageScale="1" pageWidth="827" pageHeight="1169" math="0" shadow="0">
            <root>
                <mxCell id="0"/>
                <mxCell id="1" parent="0"/>
                <mxCell id="4" style="edgeStyle=orthogonalEdgeStyle;rounded=0;orthogonalLoop=1;jettySize=auto;html=1;" edge="1" parent="1" source="2" target="3">
                    <mxGeometry relative="1" as="geometry"/>
                </mxCell>
                <mxCell id="2" value="&lt;div&gt;&lt;span&gt;&lt;b&gt;Document Language Identification&lt;/b&gt;&lt;/span&gt;&lt;/div&gt;&lt;div&gt;&lt;br&gt;&lt;/div&gt;&lt;div&gt;- &lt;u&gt;input&lt;/u&gt;: document&lt;/div&gt;&lt;div&gt;- &lt;u&gt;output&lt;/u&gt;: languages present in the document&lt;/div&gt;" style="rounded=1;whiteSpace=wrap;html=1;align=left;verticalAlign=middle;spacingLeft=10;" parent="1" vertex="1">
                    <mxGeometry x="120" y="320" width="240" height="120" as="geometry"/>
                </mxCell>
                <mxCell id="3" value="&lt;b&gt;Token Language Identification&lt;/b&gt;&lt;br&gt;&lt;br&gt;- &lt;u&gt;input&lt;/u&gt;: document, languages present in the document&lt;br&gt;- &lt;u&gt;output&lt;/u&gt;: each token labelled" style="rounded=1;whiteSpace=wrap;html=1;align=left;spacingLeft=10;" parent="1" vertex="1">
                    <mxGeometry x="440" y="320" width="240" height="120" as="geometry"/>
                </mxCell>
            </root>
        </mxGraphModel>
    </diagram>
</mxfile>